<svg viewBox="0 0 100 100" xmlns="http://www.w3.org/2000/svg">
  <path d="M35,30 C15,20 10,50 32,60" fill="#94A3B8" stroke="#1E293B" stroke-width="2"/>
  <path d="M65,30 C85,20 90,50 68,60" fill="#94A3B8" stroke="#1E293B" stroke-width="2"/>
  <rect x="32" y="75" width="12" height="18" rx="4" fill="#CBD5E1" stroke="#1E293B" stroke-width="2"/>
  <rect x="56" y="75" width="12" height="18" rx="4" fill="#CBD5E1" stroke="#1E293B" stroke-width="2"/>
  <rect x="25" y="45" width="50" height="35" rx="15" fill="#CBD5E1" stroke="#1E293B" stroke-width="2.5"/>
  <path d="M43,48 Q40,62 35,60" fill="white" stroke="#1E293B" stroke-width="1.2"/>
  <path d="M57,48 Q60,62 65,60" fill="white" stroke="#1E293B" stroke-width="1.2"/>
  <circle cx="50" cy="40" r="18" fill="#CBD5E1" stroke="#1E293B" stroke-width="2.5"/>
  <circle cx="43" cy="38" r="2" fill="#1E293B"/>
  <circle cx="57" cy="38" r="2" fill="#1E293B"/>
  <path d="M50,45 Q50,75 45,82" fill="none" stroke="#1E293B" stroke-width="5" stroke-linecap="round"/>
  <line x1="48" y1="58" x2="52" y2="58" stroke="#1E293B" stroke-width="1" opacity="0.6"/>
  <line x1="48" y1="65" x2="52" y2="65" stroke="#1E293B" stroke-width="1" opacity="0.6"/>
</svg>
